# xmcd
# Copyright (C) 1995-1998 Ti Kan
#
# Track frame offsets:
#       150
#       24612
#       48962
#       69995
#       88090
#       112917
#       136337
#       159332
#       182000
#       205125
#       226897
#
# Disc length: 3322 seconds
#
# Revision: 0
# Processed by: cddbd v1.5.2PL0 Copyright (c) Steve Scherf et al.
# Submitted via: CD-Import v1.0
#
DISCID=860cf80b
DTITLE=Antonello Venditti - Bienvenido Al Paraiso
DYEAR=1996
DGENRE=
TTITLE0=Bienvenido Al Paraiso
TTITLE1=Habla Como Besas
TTITLE2=Cien Mil Hijos
TTITLE3=Necesito Un Amigo
TTITLE4=El Cumpleaños De Cristina
TTITLE5=Acuerdate De Mi
TTITLE6=Todos Al Cuerno
TTITLE7=A Que Juego Juegas
TTITLE8=Viento Salvaje
TTITLE9=Heroes Menores
TTITLE10=Cada Instante
EXTD=
EXTT0=
EXTT1=
EXTT2=
EXTT3=
EXTT4=
EXTT5=
EXTT6=
EXTT7=
EXTT8=
EXTT9=
EXTT10=
PLAYORDER=
